<svg xmlns="http://www.w3.org/2000/svg" width="57.394" height="68.432" viewBox="0 0 57.394 68.432">
  <defs> 
  </defs>
  <g id="buyer" transform="translate(-40)">
    <g id="Group_22" data-name="Group 22" transform="translate(40)">
      <path id="Path_18" data-name="Path 18" class="cls-1" style="fill: #29cce2;" d="M92.979,48.564a5.485,5.485,0,0,0-1.88-4.117,4.371,4.371,0,0,0,.776-2.485v-.59a4.374,4.374,0,0,0-.226-1.39L86.957,25.9a8.819,8.819,0,0,0-8.376-6.037H74.928a9.917,9.917,0,0,0,3.7-7.726V8.558A8.568,8.568,0,0,0,70.072,0H67.322a8.567,8.567,0,0,0-8.558,8.558v3.583a9.917,9.917,0,0,0,3.7,7.726H58.813A8.819,8.819,0,0,0,50.437,25.9L45.745,39.982a4.379,4.379,0,0,0-.226,1.39v.59a4.364,4.364,0,0,0,.776,2.486,5.485,5.485,0,0,0-1.88,4.117H40v17.66H57.66v2.207H79.735V66.224h17.66V48.564Zm-2.207,0H84.149a3.3,3.3,0,0,1,1.37-2.67,4.39,4.39,0,0,0,1.962.462A4.346,4.346,0,0,0,89.4,45.9,3.3,3.3,0,0,1,90.772,48.564Zm-1.216-7.883a2.161,2.161,0,0,1,.113.69v.59a2.166,2.166,0,0,1-.5,1.38,5.035,5.035,0,0,0-3.385-.006,2.213,2.213,0,0,1-.328-.561L81.321,32.45,86.028,30.1Zm-5.7,3.742a5.485,5.485,0,0,0-1.909,4.141H79.735V34.43L83.4,43.6A4.4,4.4,0,0,0,83.851,44.423ZM60.971,8.557a6.358,6.358,0,0,1,6.351-6.35h2.751a6.358,6.358,0,0,1,6.351,6.351v.427a8.431,8.431,0,0,1-1.592-1.774A3.789,3.789,0,0,0,71.67,5.519H65.724a3.819,3.819,0,0,0-3.2,1.749,8.173,8.173,0,0,1-1.554,1.72Zm0,3.584v-.474A10.521,10.521,0,0,0,64.4,8.434a1.586,1.586,0,0,1,1.323-.707h5.946a1.621,1.621,0,0,1,1.362.766,10.412,10.412,0,0,0,3.391,3.175v.474a7.726,7.726,0,1,1-15.452,0Zm11.87,9.934a4.992,4.992,0,0,1-8.287,0h8.287Zm-25.114,19.3a2.163,2.163,0,0,1,.113-.691L51.366,30.1l4.707,2.354-4.13,10.324a2.19,2.19,0,0,1-.329.562,5.014,5.014,0,0,0-3.384.006,2.166,2.166,0,0,1-.5-1.38Zm.265,4.523a4.311,4.311,0,0,0,3.883,0,3.3,3.3,0,0,1,1.371,2.67H46.622A3.3,3.3,0,0,1,47.991,45.9ZM57.66,64.017H42.207V50.772h2.207v2.207h2.207V50.772h6.622v2.207h2.207V50.772H57.66Zm0-15.452H55.452a5.481,5.481,0,0,0-1.911-4.141,4.447,4.447,0,0,0,.453-.829l3.666-9.165Zm9.934,17.66H59.867V64.017h7.726Zm9.934,0H69.8V64.017h7.726Zm0-4.415H69.8V49.668H67.593V61.809H59.867V50.66a5.529,5.529,0,0,0,4.415-5.407h8.83a5.529,5.529,0,0,0,4.415,5.407ZM59.867,48.361V45.253h2.207A3.307,3.307,0,0,1,59.867,48.361Zm17.66,0a3.305,3.305,0,0,1-2.207-3.108h2.207Zm0-20.768V43.046H59.867V27.593H57.66v.891L56.9,30.392,52.07,27.98,52.53,26.6a6.616,6.616,0,0,1,6.284-4.528h3.4c.615,2.515,3.29,4.415,6.489,4.415s5.873-1.9,6.489-4.415h3.4A6.613,6.613,0,0,1,84.864,26.6l.459,1.377L80.5,30.394l-.763-1.909v-.891Zm17.66,36.423H79.735V50.772h2.207v2.207h2.207V50.772h6.622v2.207h2.207V50.772h2.207Z" transform="translate(-40)"/>
    </g>
  </g>
</svg>
