
<svg xmlns="http://www.w3.org/2000/svg" xmlns:xlink="http://www.w3.org/1999/xlink" width="138" height="169" viewBox="0 0 138 169">
  <defs> 
    <clipPath id="clip-path">
      <rect id="Rectangle_9" data-name="Rectangle 9" class="cls-1" style=" fill: #fff;" width="138" height="169" transform="translate(27 253)"/>
    </clipPath>
  </defs>
  <g id="Mask_Group_1" data-name="Mask Group 1" class="cls-2" style="clip-path: url(#clip-path); color:#fff;" transform="translate(-27 -253)">
    <g id="shop" transform="translate(58.774 282.274)">
      <path id="Path_15" data-name="Path 15" class="cls-1" d="M25.678,106.839a3.42,3.42,0,1,0,3.42,3.42A3.424,3.424,0,0,0,25.678,106.839Zm0,4.56a1.14,1.14,0,1,1,1.14-1.14A1.141,1.141,0,0,1,25.678,111.4Z" transform="translate(-9.772 -51.034)"/>
      <path id="Path_16" data-name="Path 16" class="cls-1" d="M20.249,95.71a9.12,9.12,0,1,0,9.12,9.12A9.13,9.13,0,0,0,20.249,95.71Zm0,15.96a6.84,6.84,0,1,1,6.84-6.84A6.847,6.847,0,0,1,20.249,111.669Z" transform="translate(-4.343 -45.605)"/>
      <path id="Path_17" data-name="Path 17" class="cls-1" d="M72.9,38.7a3.424,3.424,0,0,0-3.42-3.42h-1.14V7.926a5.682,5.682,0,0,0-10.26-3.385,5.648,5.648,0,0,0-9.12,0,5.648,5.648,0,0,0-9.12,0,5.648,5.648,0,0,0-9.12,0,5.682,5.682,0,0,0-10.26,3.385V35.285a10.272,10.272,0,0,0-10.26-10.26H9.77a4.562,4.562,0,1,0-.078,6.9A4.541,4.541,0,0,1,13.6,36.195a3.393,3.393,0,0,0,1.164,5.72V45.6a13.675,13.675,0,1,0,14.82,13.622H61.5v2.4a5.7,5.7,0,1,0,2.28,0v-2.4h6.84V41.915A3.415,3.415,0,0,0,72.9,38.7Zm-6.84,28.5a3.42,3.42,0,1,1-4.56-3.21V67.2h2.28v-3.21A3.415,3.415,0,0,1,66.064,67.2Zm-2.28-31.919V13.626h2.28v21.66Zm-24.073,0-.855-6.84h6.537l-.855,6.84Zm11.4,0-.855-6.84h6.537l-.855,6.84Zm3.348-9.12-1.14-5.7H48.965v2.28H51.45l.684,3.42H43.06l-1.14-5.7H37.565v2.28H40.05l.684,3.42H36.273l1.14,9.12H27.305V13.626H61.5v21.66H58.236l1.14-9.12Zm-5.646,9.12H46.835l.989-7.909ZM62.644,4.506a3.424,3.424,0,0,1,3.42,3.42v3.42h-6.84V7.926A3.424,3.424,0,0,1,62.644,4.506Zm-9.12,0a3.424,3.424,0,0,1,3.42,3.42v3.42H50.1V7.926A3.424,3.424,0,0,1,53.525,4.506Zm-9.12,0a3.424,3.424,0,0,1,3.42,3.42v3.42h-6.84V7.926A3.424,3.424,0,0,1,44.4,4.506Zm-9.12,0a3.424,3.424,0,0,1,3.42,3.42v3.42h-6.84V7.926A3.424,3.424,0,0,1,35.285,4.506Zm-9.12,0a3.424,3.424,0,0,1,3.42,3.42v3.42h-6.84V7.926A3.424,3.424,0,0,1,26.165,4.506Zm-3.42,9.12h2.28v21.66h-2.28Zm-15.96,17.1a2.28,2.28,0,1,1,2.28-2.28A2.282,2.282,0,0,1,6.786,30.725Zm4.3-.834a4.182,4.182,0,0,0,.116-2.516,7.987,7.987,0,0,1,6.98,7.91h-2.28c-.034,0-.067.009-.1.01a6.856,6.856,0,0,0-4.715-5.4Zm4.816,40.734a11.4,11.4,0,1,1,11.4-11.4A11.413,11.413,0,0,1,15.905,70.624Zm13.473-13.68A13.688,13.688,0,0,0,17.045,45.6V42.125h51.3v14.82Zm40.105-17.1H15.905a1.14,1.14,0,1,1,0-2.28H69.484a1.14,1.14,0,1,1,0,2.28Z" transform="translate(0 0)"/>
    </g>
  </g>
</svg>
